<svg x="0" y="0" viewBox="0 0 37.78 24"><polygon className="chevron-left logo-part" points="0,11.85 9.67,2.19 12.96,5.48 6.59,11.85 12.96,18.23 9.67,21.52"></polygon><path className="chevrons-right logo-part" d="M24.82,18.23l6.37-6.37l-5.07-5.07l-1.3-1.3l3.3-3.3l1.3,1.3l8.37,8.37l-9.67,9.67L24.82,18.23z"></path><path className="pen-bottom logo-part" d="M18.89,20.95l4.6-17.17l-4.53-1.21l-4.6,17.18c-0.03,0.08-0.04,0.17-0.02,0.26l1.01,3.7c0,0.01,0.01,0.01,0.01,0.02c0,0.01,0.01,0.03,0.02,0.04c0.01,0.01,0.01,0.02,0.02,0.04c0.01,0.01,0.01,0.02,0.02,0.03c0.01,0.01,0.02,0.02,0.03,0.04c0,0.01,0.01,0.01,0.01,0.02c0,0,0.01,0.01,0.01,0.01c0.01,0.01,0.02,0.02,0.03,0.03c0.01,0.01,0.02,0.02,0.03,0.02c0.01,0.01,0.02,0.01,0.04,0.02c0.01,0.01,0.02,0.01,0.04,0.02c0.01,0,0.02,0.01,0.04,0.01s0.03,0.01,0.04,0.01c0.01,0,0.03,0,0.04,0c0.01,0,0.03,0,0.04,0c0.01,0,0.03,0,0.04,0c0.01,0,0.03,0,0.04-0.01c0,0,0.01,0,0.02,0c0.01,0,0.01,0,0.02-0.01c0.01-0.01,0.03-0.01,0.04-0.02c0.01-0.01,0.02-0.01,0.04-0.02c0.01-0.01,0.02-0.01,0.03-0.02c0.01-0.01,0.02-0.02,0.03-0.03c0.01-0.01,0.01-0.01,0.02-0.01l2.73-2.7C18.84,21.11,18.88,21.03,18.89,20.95z M16.11,22.25c-0.13-0.04-0.2-0.06-0.32-0.09l-0.59-2.15l2.81,0.75l-1.59,1.57C16.3,22.3,16.24,22.28,16.11,22.25z"></path><path className="pen-top logo-part" d="M23.7,3l-4.53-1.21l0.46-1.74c0,0,2.36-0.43,4.53,1.21L23.7,3z"></path></svg>